STARTFONT 2.1
FONT jis.jis6000.24
SIZE 24 72 72
FONTBOUNDINGBOX 24 24 0 -3
STARTPROPERTIES 4
FONT_DESCENT 3
FONT_ASCENT 21
DEFAULT_CHAR 14
COPYRIGHT "Copyright (c) 1992 AT&T - All rights reserved."
ENDPROPERTIES
CHARS 197
STARTCHAR ch-14
ENCODING 14
SWIDTH 1000 0
DWIDTH 24 0
BBX 24 24 0 -3
BITMAP
010000
01c000
038000
03000c
07fffe
0c1800
181830
301ff8
c01800
001800
001818
001ffc
001800
001800
001800
000000
01d000
118c30
11860c
218646
618047
e18063
c1ffe0
00ffc0
ENDCHAR
STARTCHAR ch-15
ENCODING 15
SWIDTH 1000 0
DWIDTH 24 0
BBX 24 24 0 -3
BITMAP
0e01c0
0c0180
0c0180
0c0180
0c218c
2c3ffe
2e318c
2d318c
6db18c
6db18c
4c318c
cc318c
cc318c
0cffff
0c0340
0c0340
0c0640
0c0620
0c0420
0c0c30
0c0818
0c101f
0c200e
0cc006
ENDCHAR
STARTCHAR ch-16
ENCODING 16
SWIDTH 1000 0
DWIDTH 24 0
BBX 24 24 0 -3
BITMAP
0e1000
0c1c00
0c1800
0c3006
0c3fff
2c6006
2c4006
2e8006
6d2186
6dbfc6
4db186
cc3186
cc3186
0c3186
0c3186
0c3186
0c3f86
0c3186
0c300e
0c000c
0c000c
0c001c
0c00f8
0c0030
ENDCHAR
STARTCHAR ch-18
ENCODING 18
SWIDTH 1000 0
DWIDTH 24 0
BBX 24 24 0 -3
BITMAP
0e0000
0c0000
0c000c
0c6ffe
fff20c
186218
18c218
18c130
3581e0
3300c0
02c1e0
046338
08661f
30180e
c00006
01d000
018c00
118610
11860c
318046
618043
e18063
c1ffe0
00ffc0
ENDCHAR
STARTCHAR ch-21
ENCODING 21
SWIDTH 1000 0
DWIDTH 24 0
BBX 24 24 0 -3
BITMAP
0e0100
0c01c0
0c0180
0c0300
0c0200
2c2406
2e3fff
2d3006
6db006
6db006
4c3006
cc3006
cc3006
0c3ffe
0c3006
0c3006
0c3006
0c3006
0c3006
0c3006
0c3006
0c3ffe
0c3006
0c3006
ENDCHAR
STARTCHAR ch-22
ENCODING 22
SWIDTH 1000 0
DWIDTH 24 0
BBX 24 24 0 -3
BITMAP
0e0400
0c0700
0c0600
0c0600
0c0606
2cffff
2e0c00
2d0c00
6d89c0
6d9980
cc118c
cc3ffe
0c718c
0cb18c
0d318c
0c318c
0c318c
0c318c
0c318c
0c31bc
0c3198
0c0180
0c0180
0c0180
ENDCHAR
STARTCHAR ch-25
ENCODING 25
SWIDTH 1000 0
DWIDTH 24 0
BBX 24 24 0 -3
BITMAP
0e0380
0c0300
0c0300
0c0300
0c0306
2cffff
2e0300
2d0300
6d8300
6d8300
4c0300
cc0300
cc2318
0c3ffc
0c3018
0c3018
0c3018
0c3018
0c3018
0c3018
0c3018
0c3ff8
0c3018
0c3018
ENDCHAR
STARTCHAR ch-27
ENCODING 27
SWIDTH 1000 0
DWIDTH 24 0
BBX 24 24 0 -3
BITMAP
0e0000
0c2018
0c3ffc
0c3018
0c3018
2c3018
2e3018
2d3018
6db018
6dbff8
4c3018
cc3018
cc3018
0c3018
0c3018
0c3018
0c3ff8
0c3018
0c0000
0c0000
0c0000
0c0006
0cffff
0c0000
ENDCHAR
STARTCHAR ch-28
ENCODING 28
SWIDTH 1000 0
DWIDTH 24 0
BBX 24 24 0 -3
BITMAP
0e0600
0c0600
0c0d00
0c0c80
0e08c0
2d1860
2d9038
6da01f
6c40ce
ccbfe6
cd0000
0c0000
0c0018
0cfffc
0c0618
0c0618
0c0618
0c0618
0c0618
0c0618
0c06f8
0c0630
0c0600
0c0600
ENDCHAR
STARTCHAR ch-29
ENCODING 29
SWIDTH 1000 0
DWIDTH 24 0
BBX 24 24 0 -3
BITMAP
080030
0ffff8
0c1830
0c1830
0c1830
0c1830
0ffff0
0c1830
0c1830
0c1830
0c1830
0ffff0
0c0030
000000
001800
01c600
118310
11830c
118006
218047
618043
e18060
c1ffe0
00ffc0
ENDCHAR
STARTCHAR ch-32
ENCODING 32
SWIDTH 1000 0
DWIDTH 24 0
BBX 24 24 0 -3
BITMAP
004000
007000
006080
004060
008030
3fffd8
1fc01c
10000c
040060
07fff0
060060
060060
060060
07ffe0
060060
001000
01cc00
118630
11860c
218046
618047
c18063
c1ffe0
00ffc0
ENDCHAR
STARTCHAR ch-33
ENCODING 33
SWIDTH 1000 0
DWIDTH 24 0
BBX 24 24 0 -3
BITMAP
0e0100
0c01c0
0c0180
0c0380
0e0300
2d0208
2d8604
2d8406
6c083b
6c7fc3
4c3c03
cc2000
cc0000
0c100c
0c1ffe
0c180c
0c180c
0c180c
0c180c
0c180c
0c180c
0c1ffc
0c180c
0c180c
ENDCHAR
STARTCHAR ch-37
ENCODING 37
SWIDTH 1000 0
DWIDTH 24 0
BBX 24 24 0 -3
BITMAP
010000
018180
03ffc0
030300
060200
0c0418
1ffffc
300018
c00018
000018
0ffff8
000018
000018
000018
0ffff8
000018
01d000
018c10
11860c
118646
218047
e18063
c1ffe0
00ffc0
ENDCHAR
STARTCHAR ch-38
ENCODING 38
SWIDTH 1000 0
DWIDTH 24 0
BBX 24 24 0 -3
BITMAP
0e0000
0c000c
0c3ffe
0c0180
0c0180
2c0188
2e218e
2d118c
6d918c
6d9998
4c1990
cc19a0
cc0180
0c0186
0c7fff
0c0180
0c0180
0c0180
0c0180
0c0180
0c0180
0c0180
0c0180
0c0180
ENDCHAR
STARTCHAR ch-39
ENCODING 39
SWIDTH 1000 0
DWIDTH 24 0
BBX 24 24 0 -3
BITMAP
0e01c0
0c1180
0c1d80
0c1980
0c1980
2e198c
2d3ffe
2db180
6da180
6c6180
4c4180
cc8180
cc018c
0c3ffe
0c0180
0c0180
0c0180
0c0180
0c0180
0c0180
0c0180
0c0186
0cffff
0c0000
ENDCHAR
STARTCHAR ch-40
ENCODING 40
SWIDTH 1000 0
DWIDTH 24 0
BBX 24 24 0 -3
BITMAP
080000
0e0418
0c67fc
0ff618
186618
186618
30c618
6cc6f8
838630
018602
030602
060603
0c07ff
3003fe
c02000
001800
01cc00
098c10
09800c
118046
318047
e18063
c1ffe0
00ffc0
ENDCHAR
STARTCHAR ch-41
ENCODING 41
SWIDTH 1000 0
DWIDTH 24 0
BBX 24 24 0 -3
BITMAP
0e200c
0c3ffe
0c300c
0c300c
0c300c
2c300c
2e3ffc
2d300c
6db000
6db380
4c3300
cc330c
cc331e
0c3338
0c3360
0c7380
0c6300
0c6300
0c4302
0cc302
0c8302
0d0303
0c03ff
0c01fe
ENDCHAR
STARTCHAR ch-42
ENCODING 42
SWIDTH 1000 0
DWIDTH 24 0
BBX 24 24 0 -3
BITMAP
0e0018
0c7ffc
0c1018
0c0830
0c0830
2d0460
2c82c0
2cc180
6cc3c0
6c0670
4c0c3f
cc301e
ccc386
0c0300
0c0300
0c0318
0c7ffc
0c0300
0c0300
0c0300
0c0300
0c0306
0dffff
0c0000
ENDCHAR
STARTCHAR ch-43
ENCODING 43
SWIDTH 1000 0
DWIDTH 24 0
BBX 24 24 0 -3
BITMAP
0e0ee0
0c0cc0
0c0cc0
0c0cc4
0cfffe
2e0cc4
2d0cc4
2d8cc4
6d8cc4
6c7ffc
4c4cc4
cc4cc0
cc4cc0
0c4cc6
0c7fff
0cccc6
0cccc6
0c0cc6
0c0cc6
0c08de
0c18cc
0c10c0
0c20c0
0cc0c0
ENDCHAR
STARTCHAR ch-47
ENCODING 47
SWIDTH 1000 0
DWIDTH 24 0
BBX 24 24 0 -3
BITMAP
0e0380
0c0300
0c0300
0c0300
0c0300
2c030c
2e7ffe
2d0300
6d8300
6d8300
4c0300
cc0306
cdffff
0c0400
0c0700
0c0600
0c0600
0c0c20
0c0810
0c0818
0c10ec
0dff0e
0cf006
0c8006
ENDCHAR
STARTCHAR ch-49
ENCODING 49
SWIDTH 1000 0
DWIDTH 24 0
BBX 24 24 0 -3
BITMAP
010000
01c000
038000
03000c
07fffe
0c318c
18618c
67430c
01e60c
033c1c
0c1f18
303318
00c038
0301f0
0c2060
001800
01cc30
11860c
118606
218047
618043
e18060
c1ffe0
00ffc0
ENDCHAR
STARTCHAR ch-58
ENCODING 58
SWIDTH 1000 0
DWIDTH 24 0
BBX 24 24 0 -3
BITMAP
0e1800
0c0700
0c01c0
0c00c0
0c0000
2c0300
2e3f80
2d0300
6d8308
6d830e
4c1b0c
ccfb98
cc1ba0
0c1b40
0c3340
0c3360
0c2320
0c6330
0c4318
0cc31f
0c830e
0d0306
0c1f00
0c0600
ENDCHAR
STARTCHAR ch-65
ENCODING 65
SWIDTH 1000 0
DWIDTH 24 0
BBX 24 24 0 -3
BITMAP
020030
0380f8
0707c0
067f00
0c0300
0c0300
1c0306
3dffff
6c0300
8c0300
0c0300
0c0300
0c030c
0cfffe
0c0000
002000
039800
030c10
130c0c
130046
230047
e30063
c3ffe0
01ffc0
ENDCHAR
STARTCHAR ch-66
ENCODING 66
SWIDTH 1000 0
DWIDTH 24 0
BBX 24 24 0 -3
BITMAP
0e1000
0c1c00
0c1800
0c3006
0c3fff
2c6006
2c4006
2ea186
6d3fc6
6db186
4db186
cc3186
cc3f86
0c3186
0c3186
0c3186
0c3186
0c3f86
0c318e
0c000c
0c000c
0c001c
0c00f8
0c0030
ENDCHAR
STARTCHAR ch-67
ENCODING 67
SWIDTH 1000 0
DWIDTH 24 0
BBX 24 24 0 -3
BITMAP
0e0380
0c0300
0c0300
0c0318
0c7ffc
2c0300
2c0300
2e0300
6d0306
6dffff
4d8000
cc0030
cc0032
0cffff
0c0030
0c2030
0c1830
0c0c30
0c0c30
0c0030
0c0030
0c0030
0c01f0
0c0060
ENDCHAR
STARTCHAR ch-70
ENCODING 70
SWIDTH 1000 0
DWIDTH 24 0
BBX 24 24 0 -3
BITMAP
0e0000
0c000c
0cfffe
0c1800
0c1800
2c1800
2e1830
2d1ff8
6d9830
6d9830
4c1a30
cc19b0
cc18b0
0c1830
0c1a30
0c19b0
0c18b0
0c1830
0c1830
0c0030
0c0030
0c0036
0cffff
0c0000
ENDCHAR
STARTCHAR ch-74
ENCODING 74
SWIDTH 1000 0
DWIDTH 24 0
BBX 24 24 0 -3
BITMAP
0e0700
0c0600
0c0618
0c7ffc
0c0618
2e0618
2d0418
2d8c30
6d8830
6c11f0
4c6060
cc0000
cc6060
0c6666
0dffff
0c6666
0c6666
0c6666
0c4646
0c46c6
0ccc8c
0c8c8c
0cbd3c
0d1a18
ENDCHAR
STARTCHAR ch-75
ENCODING 75
SWIDTH 1000 0
DWIDTH 24 0
BBX 24 24 0 -3
BITMAP
001c00
001800
001806
ffffff
00c300
08c300
0ec320
0cc318
18c30c
10c30e
218306
418306
830300
060000
000000
001000
01cc20
118618
11860c
318046
618047
e18063
c1ffe0
00ffc0
ENDCHAR
STARTCHAR ch-77
ENCODING 77
SWIDTH 1000 0
DWIDTH 24 0
BBX 24 24 0 -3
BITMAP
0e0380
0c0308
0c430e
0c230c
0c3318
2e3318
2d1b30
2d9b20
6d8340
6c0306
4cffff
cc0c60
cc0c60
0c0c60
0c0c60
0c0c60
0c0c60
0c1860
0c1862
0c1062
0c3062
0c2063
0c407f
0c803e
ENDCHAR
STARTCHAR ch-80
ENCODING 80
SWIDTH 1000 0
DWIDTH 24 0
BBX 24 24 0 -3
BITMAP
001060
031ff0
7f9860
0c1860
0c1860
0c1c60
0c1a60
0c1b62
0c9b62
0f3063
fc307f
70603e
418000
000000
002000
039800
030c30
13060c
130606
230027
630023
e30030
c3fff0
01ffe0
ENDCHAR
STARTCHAR ch-82
ENCODING 82
SWIDTH 1000 0
DWIDTH 24 0
BBX 24 24 0 -3
BITMAP
0e0000
0c000c
0cfffe
0c0000
0c0000
2e0000
2d2018
2dbffc
6db018
6db018
4c3018
cc3018
cc3ff8
0c3018
0c3018
0c3018
0c3018
0c3ff8
0c3018
0c0000
0c0000
0c0006
0dffff
0c0000
ENDCHAR
STARTCHAR ch-85
ENCODING 85
SWIDTH 1000 0
DWIDTH 24 0
BBX 24 24 0 -3
BITMAP
070000
060000
060206
0633ff
fffb06
0c3306
0c3306
186306
186306
36c306
318306
036306
0633fe
0c3306
300000
c0e800
00c610
08c30c
08c306
10c043
30c043
70c060
60ffe0
007fc0
ENDCHAR
STARTCHAR ch-89
ENCODING 89
SWIDTH 1000 0
DWIDTH 24 0
BBX 24 24 0 -3
BITMAP
020080
0180e0
00c1c0
00c100
000218
3ffffc
001800
001800
001830
1ffff8
001800
001800
001806
ffffff
000000
002000
001830
11cc0c
118606
218647
618043
e18060
c1ffe0
00ffc0
ENDCHAR
STARTCHAR ch-90
ENCODING 90
SWIDTH 1000 0
DWIDTH 24 0
BBX 24 24 0 -3
BITMAP
001c00
001830
1ffff8
001800
001800
00180c
7ffffe
001800
001800
001830
1ffff8
001800
001800
001806
ffffff
000000
002000
039810
130c0c
130c46
230047
e30063
c3ffe0
01ffc0
ENDCHAR
STARTCHAR ch-95
ENCODING 95
SWIDTH 1000 0
DWIDTH 24 0
BBX 24 24 0 -3
BITMAP
0e0800
0c0e00
0c0c00
0c1800
0c1006
2c3fff
2e2006
2d4106
6d81c6
6d8986
4c2526
cc2726
cc2226
0c2726
0c2526
0c29a6
0c31a6
0c2026
0c3fe6
0c2026
0c000e
0c000c
0c007c
0c0018
ENDCHAR
STARTCHAR ch-96
ENCODING 96
SWIDTH 1000 0
DWIDTH 24 0
BBX 24 24 0 -3
BITMAP
0e0400
0c0700
0c0600
0c0600
0c0606
2cffff
2e0c00
2d0c00
6d9c70
6d9860
4c1860
cc3060
cc306c
0c73fe
0cb060
0d3060
0c3060
0c3060
0c3060
0c3060
0c3060
0c3066
0c37ff
0c3000
ENDCHAR
STARTCHAR ch-98
ENCODING 98
SWIDTH 1000 0
DWIDTH 24 0
BBX 24 24 0 -3
BITMAP
1c8006
18ffff
18c000
18c000
18c1c0
5cc180
5ac188
5bc98e
5bc98c
d8c98c
d8d998
d8d990
18d9a0
18c180
18c340
18c340
18c320
18c620
188630
198c18
198c1c
19180f
1a300e
18c006
ENDCHAR
STARTCHAR ch-99
ENCODING 99
SWIDTH 1000 0
DWIDTH 24 0
BBX 24 24 0 -3
BITMAP
001000
001c00
001800
06300c
7f3ffe
00660c
004608
008610
000d00
070cc0
fc1870
70303f
40c01e
030006
002000
001800
01cc30
11860c
118606
218047
618043
e18060
c1ffe0
00ffc0
ENDCHAR
STARTCHAR ch-100
ENCODING 100
SWIDTH 1000 0
DWIDTH 24 0
BBX 24 24 0 -3
BITMAP
0e0200
0c0380
0c0300
0c0600
0c240c
2c3ffe
2e324c
2d324c
6db24c
6db24c
4c324c
cc324c
cc324c
0c324c
0c324c
0c324c
0c324c
0c324c
0c324c
0c324c
0c324c
0c324c
0cffff
0c0000
ENDCHAR
STARTCHAR ch-101
ENCODING 101
SWIDTH 1000 0
DWIDTH 24 0
BBX 24 24 0 -3
BITMAP
006100
fff0c0
318060
318030
318030
318000
318380
3f8300
318300
318300
318308
318b04
318b06
3f8b02
319b03
319b03
319303
31b300
33b308
fd8308
718308
41830c
0183fc
0181f8
ENDCHAR
STARTCHAR ch-104
ENCODING 104
SWIDTH 1000 0
DWIDTH 24 0
BBX 24 24 0 -3
BITMAP
0e1018
0c1ffc
0c1818
0c1818
0c1818
2c1818
2e1ff8
2d1818
6d9818
6d9818
4c1818
cc1ff8
cc1904
0c1907
0c1886
0c188c
0c18d0
0c1840
0c1860
0c1830
0c1b38
0dfc1f
0cf00e
0c8006
ENDCHAR
STARTCHAR ch-105
ENCODING 105
SWIDTH 1000 0
DWIDTH 24 0
BBX 24 24 0 -3
BITMAP
080030
0ffff8
0c1c30
0c1830
0c1930
0dffb0
0c1830
0c1830
0c3430
0c3330
0c61b0
0d81b0
0c0030
0ffff0
0c0030
001000
01cc00
118610
11860c
218046
618047
e18063
c1ffe0
00ffc0
ENDCHAR
STARTCHAR ch-106
ENCODING 106
SWIDTH 1000 0
DWIDTH 24 0
BBX 24 24 0 -3
BITMAP
0e0800
0c0e00
0c0c30
0c1ff8
0c1830
2c3060
2e2860
2d44c0
6d8380
6d8380
4c06e0
cc0c7f
cc101e
0c6006
0d8000
0c3ff8
0c3018
0c3018
0c3018
0c3018
0c3018
0c3ff8
0c3018
0c3018
ENDCHAR
STARTCHAR ch-107
ENCODING 107
SWIDTH 1000 0
DWIDTH 24 0
BBX 24 24 0 -3
BITMAP
0e4006
0c7fff
0c6006
0c6006
0c6066
2c6ff6
2e6006
2d6006
6de006
6de466
4c67f6
cc6666
cc6666
0c6666
0c6666
0c6666
0c67e6
0c6666
0c6006
0c6006
0c6006
0c6006
0c603e
0c600c
ENDCHAR
STARTCHAR ch-108
ENCODING 108
SWIDTH 1000 0
DWIDTH 24 0
BBX 24 24 0 -3
BITMAP
0e000c
0c007e
0c03f0
0c3d80
0c0180
2c0180
2e0180
2d8186
6cffff
6cc180
4c0180
cc0180
cc0180
0c218c
0c3ffe
0c300c
0c300c
0c300c
0c300c
0c300c
0c300c
0c3ffc
0c300c
0c300c
ENDCHAR
STARTCHAR ch-109
ENCODING 109
SWIDTH 1000 0
DWIDTH 24 0
BBX 24 24 0 -3
BITMAP
00e380
00c300
00c300
00c318
3ffffc
00c300
00c300
00c300
00c306
ffffff
00c100
01e080
038060
073838
0c301f
303006
c03040
023230
023118
04319c
0c30cc
3830cc
31f0c0
006000
ENDCHAR
STARTCHAR ch-111
ENCODING 111
SWIDTH 1000 0
DWIDTH 24 0
BBX 24 24 0 -3
BITMAP
004000
007000
046060
07fff0
060060
060060
07ffe0
060060
060060
07ffe0
060060
060060
060060
07ffe0
060060
001000
01cc00
118610
11860c
218086
618087
c180c3
c1ffc0
00ff80
ENDCHAR
STARTCHAR ch-112
ENCODING 112
SWIDTH 1000 0
DWIDTH 24 0
BBX 24 24 0 -3
BITMAP
0e0300
0c0300
0c0680
0c0680
0e0640
2d0c60
2d8c30
2d9838
6c301f
6c606e
4d9ff6
cc0000
cc0000
0c0000
0c2018
0c3ffc
0c3018
0c3018
0c3018
0c3018
0c3018
0c3018
0c3ff8
0c3018
ENDCHAR
STARTCHAR ch-117
ENCODING 117
SWIDTH 1000 0
DWIDTH 24 0
BBX 24 24 0 -3
BITMAP
001c00
001800
001806
ffffff
001800
101818
1ffffc
181818
181818
181818
1ffff8
181818
181818
181818
1ffff8
180018
001000
09cc10
09860c
118646
718047
e18063
c1ffe0
00ffc0
ENDCHAR
STARTCHAR ch-119
ENCODING 119
SWIDTH 1000 0
DWIDTH 24 0
BBX 24 24 0 -3
BITMAP
020700
038600
070600
06060c
0dfffe
0c0e80
1c1e80
3c1e40
6c3660
8c3630
0c6638
0cc61f
0f060e
0c0606
0c0600
002000
039800
030c10
130c0c
130046
230047
e30063
c3ffe0
01ffc0
ENDCHAR
STARTCHAR ch-129
ENCODING 129
SWIDTH 1000 0
DWIDTH 24 0
BBX 24 24 0 -3
BITMAP
0e200c
0c3ffe
0c300c
0c300c
0c300c
2c3ffc
2e300c
2d0000
6da00c
6dbffe
4c300c
cc300c
cc300c
0c3ffc
0c300c
0c300c
0c300c
0c3ffc
0c300c
0c300c
0c300c
0c300c
0c307c
0c3018
ENDCHAR
STARTCHAR ch-131
ENCODING 131
SWIDTH 1000 0
DWIDTH 24 0
BBX 24 24 0 -3
BITMAP
0e4006
0c7fff
0c6006
0c6006
0c61c6
2c6186
2e6186
2d6ff6
6de186
6de186
4c63c6
cc63a6
cc63a6
0c65b6
0c6596
0c6996
0c6186
0c6186
0c6186
0c6006
0c6006
0c7ffe
0c6006
0c6006
ENDCHAR
STARTCHAR ch-132
ENCODING 132
SWIDTH 1000 0
DWIDTH 24 0
BBX 24 24 0 -3
BITMAP
0e01c4
0c4187
0c3186
0c198c
0c1988
2c0190
2e118c
2d9ffe
6cd80c
6cd80c
4c180c
cc180c
cc1ffc
0c180c
0c180c
0c180c
0c180c
0c1ffc
0c180c
0c180c
0c180c
0c180c
0c187c
0c1818
ENDCHAR
STARTCHAR ch-137
ENCODING 137
SWIDTH 1000 0
DWIDTH 24 0
BBX 24 24 0 -3
BITMAP
0000f0
000ff8
3ffe40
041870
021860
031840
031886
ffffff
007a00
00d900
0198c0
031870
0c183f
30181e
c00006
001000
01cc00
098630
09860c
118046
318047
e18063
c1ffe0
00ffc0
ENDCHAR
STARTCHAR ch-139
ENCODING 139
SWIDTH 1000 0
DWIDTH 24 0
BBX 24 24 0 -3
BITMAP
0e01c0
0c0180
0c0186
0c7fff
0c0818
2c0838
2e0430
2d8660
6cc3c0
6cc180
4c03e0
cc067f
cc181e
0ce006
0c0000
0c1ff8
0c1818
0c1818
0c1818
0c1818
0c1818
0c1818
0c1ff8
0c1818
ENDCHAR
STARTCHAR ch-140
ENCODING 140
SWIDTH 1000 0
DWIDTH 24 0
BBX 24 24 0 -3
BITMAP
0e2020
0c1838
0c0c30
0c0c20
0c004c
2e7ffe
2d018c
2d818c
6da18c
6c3ffc
4c318c
cc3180
cc3180
0c3186
0c7fff
0c6386
0c6786
0c0586
0c0d86
0c198c
0c31bc
0c6198
0d8180
0c0180
ENDCHAR
STARTCHAR ch-141
ENCODING 141
SWIDTH 1000 0
DWIDTH 24 0
BBX 24 24 0 -3
BITMAP
0e200c
0c3ffe
0c300c
0c300c
0c3ffc
2c300c
2e300c
2d300c
6dbffc
6d8000
4c0000
cc000c
cc7ffe
0c0180
0c0180
0c0180
0c0186
0cffff
0c0180
0c0180
0c0180
0c0180
0c0180
0c0180
ENDCHAR
STARTCHAR ch-146
ENCODING 146
SWIDTH 1000 0
DWIDTH 24 0
BBX 24 24 0 -3
BITMAP
0e1018
0c1ffc
0c1818
0c1818
0c1818
2c1ff8
2e0000
2d200c
6dbffe
6db18c
4c318c
cc318c
cc318c
0c318c
0c3ffc
0c300c
0c3000
0c3000
0c3002
0c3002
0c3002
0c3003
0c3fff
0c1ffe
ENDCHAR
STARTCHAR ch-148
ENCODING 148
SWIDTH 1000 0
DWIDTH 24 0
BBX 24 24 0 -3
BITMAP
0e0800
0c0e00
0c0c00
0c0c06
0e1fff
2d1800
2db000
2da018
6c5ffc
6c9998
4c1998
cc1998
cc199a
0dffff
0c3318
0c3318
0c3318
0c3318
0c331a
0c7fff
0c6030
0c0030
0c01f0
0c0060
ENDCHAR
STARTCHAR ch-150
ENCODING 150
SWIDTH 1000 0
DWIDTH 24 0
BBX 24 24 0 -3
BITMAP
0e01c0
0c0180
0c0186
0c7fff
0e0180
2d2180
2da186
2dbfff
6c6006
6c6004
4c6018
cc1ffc
cc0030
0c0020
0c0140
0c0186
0cffff
0c0180
0c0180
0c0180
0c0180
0c0180
0c0f80
0c0300
ENDCHAR
STARTCHAR ch-151
ENCODING 151
SWIDTH 1000 0
DWIDTH 24 0
BBX 24 24 0 -3
BITMAP
0e0800
0c0e00
0c0c60
0c0ff0
0c1860
2c10c0
2e2080
2d410c
6dbffe
6db18c
4c318c
cc318c
cc318c
0c318c
0c3ffc
0c30cc
0c08c0
0c0ec0
0c0cc0
0c1cc2
0c18c2
0c30c3
0c60ff
0d807e
ENDCHAR
STARTCHAR ch-154
ENCODING 154
SWIDTH 1000 0
DWIDTH 24 0
BBX 24 24 0 -3
BITMAP
0e0380
0c0300
0c0306
0cffff
0c0300
2c0300
2e430c
2d7ffe
6d630c
6d630c
4c630c
cc630c
cc7ffc
0c674c
0c0740
0c0f20
0c0b20
0c1b30
0c1318
0c331f
0c630e
0d8306
0c0300
0c0300
ENDCHAR
STARTCHAR ch-155
ENCODING 155
SWIDTH 1000 0
DWIDTH 24 0
BBX 24 24 0 -3
BITMAP
0e0400
0c0700
0c0620
0c0418
0c080c
2c7ff6
2e3c06
2d1070
6d9c60
6d9860
4c347f
cc673f
cc8600
0c0c18
0c0ffc
0c1830
0c2460
0cc2c0
0c0180
0c03c0
0c0670
0c0c3f
0c301e
0cc006
ENDCHAR
STARTCHAR ch-159
ENCODING 159
SWIDTH 1000 0
DWIDTH 24 0
BBX 24 24 0 -3
BITMAP
0e000c
0c7ffe
0c0600
0c0600
0c0600
2c0630
2e3ff8
6d8c30
6ccc30
4ccc30
cc0c30
cc0c36
0cffff
0c0000
0c0000
0c2018
0c3ffc
0c3018
0c3018
0c3018
0c3018
0c3018
0c3ff8
0c3018
ENDCHAR
STARTCHAR ch-160
ENCODING 160
SWIDTH 1000 0
DWIDTH 24 0
BBX 24 24 0 -3
BITMAP
040400
070700
0e0600
0ce60c
1ccffe
1cc830
2cd430
4ce460
8cc2c0
0cc180
0cc3c0
0cc670
0c183f
0c601e
0c0006
001000
01cc00
118610
11860c
318046
618043
e18063
c1ffe0
00ffc0
ENDCHAR
STARTCHAR ch-163
ENCODING 163
SWIDTH 1000 0
DWIDTH 24 0
BBX 24 24 0 -3
BITMAP
001c00
041860
07fff0
061860
061860
061860
07ffe0
001800
101818
1ffffc
181818
181818
181818
1ffff8
181818
001800
002000
039810
130c0c
130c46
230047
e30063
c3ffe0
01ffc0
ENDCHAR
STARTCHAR ch-166
ENCODING 166
SWIDTH 1000 0
DWIDTH 24 0
BBX 24 24 0 -3
BITMAP
0e2010
0c181c
0c0c38
0c0e30
0c0620
2e204c
2d3ffe
2db00c
6db00c
6db00c
4c300c
cc300c
cc3ffc
0c30cc
0c08c0
0c0ec0
0c0cc0
0c0cc0
0c0cc0
0c18c2
0c18c2
0c30c3
0c60ff
0d807e
ENDCHAR
STARTCHAR ch-167
ENCODING 167
SWIDTH 1000 0
DWIDTH 24 0
BBX 24 24 0 -3
BITMAP
0e0607
0c1f06
0cf866
0c1866
0c1866
2e1866
2d1b66
2dffe6
6d9866
6c1866
4c3c66
cc3a66
cc3b66
0c7b66
0c5866
0c5866
0cd866
0c9866
0d1806
0c1806
0c1806
0c1806
0c183e
0c180c
ENDCHAR
STARTCHAR ch-169
ENCODING 169
SWIDTH 1000 0
DWIDTH 24 0
BBX 24 24 0 -3
BITMAP
1c0404
188307
18618e
18318c
183198
5c3010
5a0020
5b0040
db0000
d80040
d8e077
18c066
18c8c6
18c686
18c306
18c186
18c2c6
18c466
18c866
18d006
18c006
18fffe
18c006
18c006
ENDCHAR
STARTCHAR ch-170
ENCODING 170
SWIDTH 1000 0
DWIDTH 24 0
BBX 24 24 0 -3
BITMAP
00000c
7ffffe
00c300
00c300
10c318
1ffffc
18c318
18c318
18c318
18c318
1ffff8
18c318
00c300
00c306
ffffff
001000
11cc10
11864c
218647
618043
e1c0e3
c1ffe0
00ffc0
000000
ENDCHAR
STARTCHAR ch-178
ENCODING 178
SWIDTH 1000 0
DWIDTH 24 0
BBX 24 24 0 -3
BITMAP
00e380
00c300
00c30c
7fc3fe
00c300
00c300
3fc30c
00c3fe
00c300
07c300
fcc306
7183ff
418300
030300
060300
181000
01cc00
118610
11864c
318046
618043
e18063
c1ffe0
00ffc0
ENDCHAR
STARTCHAR ch-179
ENCODING 179
SWIDTH 1000 0
DWIDTH 24 0
BBX 24 24 0 -3
BITMAP
001c00
001806
ffffff
001800
001800
39ffe0
310020
31ffe0
310020
31ffe0
310020
310020
31ffe0
300000
300006
3fffff
302000
039810
130c0c
130c46
230047
e30063
c3ffe0
01ffc0
ENDCHAR
STARTCHAR ch-180
ENCODING 180
SWIDTH 1000 0
DWIDTH 24 0
BBX 24 24 0 -3
BITMAP
0e0380
0c0300
0c0300
0c030c
0cfffe
2c1020
2e1c38
2d1830
6d9830
6db428
4c2664
cc4246
cc8086
0c0300
0c0306
0dffff
0c0300
0c0300
0c0300
0c0300
0c0300
0c0300
0c0300
0c0300
ENDCHAR
STARTCHAR ch-181
ENCODING 181
SWIDTH 1000 0
DWIDTH 24 0
BBX 24 24 0 -3
BITMAP
0e1018
0c1ffc
0c1800
0c1800
0c1830
2c1ff8
2e1800
2d1800
6d9830
6d9ff8
4c1800
cc1800
cc1806
0dffff
0c1908
0c190c
0c1888
0c1890
0c1840
0c1860
0c1b30
0cfc3e
0c701c
0c400c
ENDCHAR
STARTCHAR ch-182
ENCODING 182
SWIDTH 1000 0
DWIDTH 24 0
BBX 24 24 0 -3
BITMAP
406406
7ff7ff
606606
606606
7fe7fe
606606
606606
7fe7fe
606606
600006
600006
601006
60c806
60cc86
62cc46
62c066
66c136
6cc136
6cc186
60ff86
607f06
600006
60003e
60000c
ENDCHAR
STARTCHAR ch-184
ENCODING 184
SWIDTH 1000 0
DWIDTH 24 0
BBX 24 24 0 -3
BITMAP
0e0030
0c01f8
0c3fc0
0c0300
0c030c
2efffe
2d0740
2d8f20
6d9b30
6c331c
4c630f
cd8006
cc0030
0c3ff8
0c0060
0c02c0
0c0306
0dffff
0c0300
0c0300
0c0300
0c0300
0c1f00
0c0600
ENDCHAR
STARTCHAR ch-188
ENCODING 188
SWIDTH 1000 0
DWIDTH 24 0
BBX 24 24 0 -3
BITMAP
0e0380
0c0300
0c030c
0c03fe
0c0300
2e0300
2d2318
6dbffc
6db018
4c3018
cc3ff8
cc3018
0c3018
0c3018
0c3ff8
0c0300
0c0300
0c0306
0dffff
0c0300
0c0300
0c0300
0c0300
0c0300
ENDCHAR
STARTCHAR ch-189
ENCODING 189
SWIDTH 1000 0
DWIDTH 24 0
BBX 24 24 0 -3
BITMAP
0e0380
0c0300
0c0306
0cffff
0c0300
2e0300
2d3ff8
2d8318
6d831a
6c7fff
4c0318
cc0318
cc3ff8
0c0400
0c0606
0cffff
0c0c30
0c1860
0c1860
0c36c0
0c31e0
0c0338
0c0c1c
0c700c
ENDCHAR
STARTCHAR ch-197
ENCODING 197
SWIDTH 1000 0
DWIDTH 24 0
BBX 24 24 0 -3
BITMAP
0e01c0
0c0184
0c7ffe
0c0180
0c0188
2e3ffc
2d0180
2d8182
6dffff
6d8000
4c1018
cc1ffc
cc1818
0c1818
0c1ff8
0c1818
0c1818
0c1ff8
0c1818
0c1818
0c1818
0c1818
0c1878
0c1830
ENDCHAR
STARTCHAR ch-198
ENCODING 198
SWIDTH 1000 0
DWIDTH 24 0
BBX 24 24 0 -3
BITMAP
0e2006
0c3fff
0c3006
0c31c6
0c3186
2c3186
2e37f6
2d3186
6db186
6db186
4c37f6
cc3006
cc3006
0c3226
0c33f6
0c3226
0c3226
0c3226
0c63e6
0c6226
0c4006
0cc006
0c803e
0d000c
ENDCHAR
STARTCHAR ch-199
ENCODING 199
SWIDTH 1000 0
DWIDTH 24 0
BBX 24 24 0 -3
BITMAP
0e0380
0c0300
0c0306
0dffff
0c0000
2e0000
2d3ff0
6db030
6db030
4c3ff0
cc0000
cc0018
0cfffc
0c0030
0c0060
0c0280
0c0306
0fffff
0c0300
0c0300
0c0300
0c0300
0c1f00
0c0600
ENDCHAR
STARTCHAR ch-209
ENCODING 209
SWIDTH 1000 0
DWIDTH 24 0
BBX 24 24 0 -3
BITMAP
001c80
001860
001820
001806
ffffff
000c20
000c38
1fc630
18c660
18c3c0
1fc182
0003c2
00c6e2
7f0c73
38303f
20000e
001000
01cc10
11860c
118646
218047
e18063
c1ffe0
00ffc0
ENDCHAR
STARTCHAR ch-211
ENCODING 211
SWIDTH 1000 0
DWIDTH 24 0
BBX 24 24 0 -3
BITMAP
0e0210
0c439c
0c2318
0c3330
0c3340
2e030c
2d7ffe
2d8680
6d8680
6c0c46
4cffff
cc0820
cc1830
0c1018
0c3fff
0c406e
0d8066
0c1060
0c1fe0
0c1808
0c1808
0c180c
0c1ffc
0c0ff8
ENDCHAR
STARTCHAR ch-216
ENCODING 216
SWIDTH 1000 0
DWIDTH 24 0
BBX 24 24 0 -3
BITMAP
0e2006
0c3fff
0c3006
0c3426
0c3236
2c3366
2e3046
2d3086
6dbffe
6db186
4c3186
cc3186
cc3ffe
0c3306
0c3306
0c3306
0c3306
0c33f6
0c31f6
0c3006
0c3006
0c3006
0c303e
0c300c
ENDCHAR
STARTCHAR ch-218
ENCODING 218
SWIDTH 1000 0
DWIDTH 24 0
BBX 24 24 0 -3
BITMAP
1c1000
181c00
181800
18300c
183ffe
1c666c
5a844c
5b0ccc
5b088c
58118c
d8210c
d8c21c
d80418
1818f8
180030
180200
180180
181cc8
1898c6
189813
199813
1b1818
1b1ff8
180ff0
ENDCHAR
STARTCHAR ch-220
ENCODING 220
SWIDTH 1000 0
DWIDTH 24 0
BBX 24 24 0 -3
BITMAP
0e0e70
0c0c60
0c0c60
0c0c6c
0c7ffe
2e0c60
2d8c60
2ccc60
6ccc60
6c0c66
4cffff
cc0000
cc2018
0c3ffc
0c3018
0c3018
0c3018
0c3ff8
0c3018
0c3018
0c3018
0c3ff8
0c3018
0c3018
ENDCHAR
STARTCHAR ch-223
ENCODING 223
SWIDTH 1000 0
DWIDTH 24 0
BBX 24 24 0 -3
BITMAP
0e0800
0c0e40
0c0c70
0c0c60
0d1840
0d1086
2dbfff
2db0c0
4c70c0
4c70c0
ccb0cc
cd3ffe
0c30c0
0c30c0
0c30c0
0c30cc
0c3ffe
0c30c0
0c30c0
0c30c0
0c30c0
0c30c6
0c3fff
0c3000
ENDCHAR
STARTCHAR ch-224
ENCODING 224
SWIDTH 1000 0
DWIDTH 24 0
BBX 24 24 0 -3
BITMAP
001c00
001806
ffffff
001800
001800
0ffff0
0c1830
0c1830
0ffff0
0c1830
0c1830
0ffff0
001840
001830
7ffffc
1f800c
001000
01cc10
09860c
118646
718047
e18063
c1ffe0
00ffc0
ENDCHAR
STARTCHAR ch-225
ENCODING 225
SWIDTH 1000 0
DWIDTH 24 0
BBX 24 24 0 -3
BITMAP
00000c
7ffffe
00c300
00c300
10c318
1fc3fc
180018
180018
180018
180018
1fc3f8
18c318
00c300
00c306
ffffff
000000
001000
11cc10
11860c
218647
618043
e18063
c1ffe0
00ffc0
ENDCHAR
STARTCHAR ch-227
ENCODING 227
SWIDTH 1000 0
DWIDTH 24 0
BBX 24 24 0 -3
BITMAP
238400
3b0700
330600
332c06
3fffff
630916
431336
832226
030666
03c446
ff0886
73110e
43220c
03047c
030018
001000
01cc20
118618
11860c
218046
618047
e18063
c1ffe0
00ffc0
ENDCHAR
STARTCHAR ch-231
ENCODING 231
SWIDTH 1000 0
DWIDTH 24 0
BBX 24 24 0 -3
BITMAP
0e2018
0c3ffc
0c3018
0c3018
0c3018
2c3ff8
2e3018
2d3018
6db018
6dbff8
4c3018
cc3018
cc3018
0c3ff8
0c3018
0c0000
0c0006
0dffff
0c0000
0c1040
0c1c30
0c3818
0c601c
0c800c
ENDCHAR
STARTCHAR ch-232
ENCODING 232
SWIDTH 1000 0
DWIDTH 24 0
BBX 24 24 0 -3
BITMAP
0e0400
0c0700
0c0620
0c0818
0c7fec
2c3c0c
2e2700
2d0600
6dfffe
6d8c40
4c0c20
cc1938
cc319f
0c6306
0d8640
0c0c60
0c30c4
0c018e
0c061c
0c1838
0c0060
0c0180
0c0e00
0c7000
ENDCHAR
STARTCHAR ch-240
ENCODING 240
SWIDTH 1000 0
DWIDTH 24 0
BBX 24 24 0 -3
BITMAP
0e0400
0c0700
0c0606
0cffff
0c0c00
2d0800
2d1ffc
6d90c0
6da0c0
4c5fff
cc8000
cc0000
0c1ffc
0c180c
0c180c
0c1ffc
0c180c
0c180c
0c1ffc
0c180c
0c180c
0c180c
0c187c
0c1818
ENDCHAR
STARTCHAR ch-241
ENCODING 241
SWIDTH 1000 0
DWIDTH 24 0
BBX 24 24 0 -3
BITMAP
0e1084
0c1ce7
0c18c6
0c318c
0c2108
2c4210
2e2108
2d318c
6d98c6
6d98c6
4c0400
cc4606
cc7fff
0c6006
0c6046
0c6466
0c62c6
0c6186
0c61c6
0c6266
0c6c66
0c6006
0c7ffe
0c6006
ENDCHAR
STARTCHAR ch-243
ENCODING 243
SWIDTH 1000 0
DWIDTH 24 0
BBX 24 24 0 -3
BITMAP
070000
06080c
060ffe
066c0c
fffc0c
060ffc
0e0c0c
0f0c0c
1ecffc
166c0c
266c0c
460c0c
860ffc
060c0c
060000
001000
01cc20
118618
11860c
218046
618047
e18063
c1ffe0
00ffc0
ENDCHAR
STARTCHAR ch-244
ENCODING 244
SWIDTH 1000 0
DWIDTH 24 0
BBX 24 24 0 -3
BITMAP
0e01c0
0c3987
0c3186
0c3186
0c3186
2c3186
2e3ffe
2d3006
6d8000
6d8006
4c7fff
cc0180
cc0100
0c2206
0c3fff
0c3246
0c3246
0c3246
0c3246
0c3246
0c3246
0c3246
0c325e
0c300c
ENDCHAR
STARTCHAR ch-246
ENCODING 246
SWIDTH 1000 0
DWIDTH 24 0
BBX 24 24 0 -3
BITMAP
0e0200
0c0380
0c230c
0c3ffe
0c300c
2c300c
2e3ffc
2d300c
6db00c
6db00c
4c3ffc
cc0000
cc000c
0c7ffe
0c0180
0c0180
0c0198
0c3ffc
0c0180
0c0180
0c0180
0c0186
0cffff
0c0000
ENDCHAR
STARTCHAR ch-247
ENCODING 247
SWIDTH 1000 0
DWIDTH 24 0
BBX 24 24 0 -3
BITMAP
003800
003030
1ffff8
006000
0ffff0
00c200
01810c
7ffffe
0300c0
060060
0dffb8
31819f
c18186
01ff80
018180
018180
01ff80
002010
13980c
130c46
230c47
e30063
c3ffe0
01ffc0
ENDCHAR
STARTCHAR ch-249
ENCODING 249
SWIDTH 1000 0
DWIDTH 24 0
BBX 24 24 0 -3
BITMAP
01c1c0
018186
ffffff
018180
018180
003800
003006
ffffff
006000
00c030
01fff8
038030
0d8030
318030
c1fff0
018030
001000
01cc10
11860c
118646
218047
e18063
c1ffe0
00ffc0
ENDCHAR
STARTCHAR ch-250
ENCODING 250
SWIDTH 1000 0
DWIDTH 24 0
BBX 24 24 0 -3
BITMAP
0e1018
0c1ffc
0c1818
0c1818
0c1ff8
2c1818
2e1818
2d1818
6d9ff8
6d8000
4c21c0
cc3980
cc318c
0c3ffe
0c6180
0c4180
0c8198
0c3ffc
0c0180
0c0180
0c0180
0c0186
0cffff
0c0000
ENDCHAR
STARTCHAR ch-251
ENCODING 251
SWIDTH 1000 0
DWIDTH 24 0
BBX 24 24 0 -3
BITMAP
1c0007
188606
18ff66
18c666
18c666
18c666
5cc666
5afe66
5ac666
5ac666
d8c666
d8c666
d8fe66
18c666
18c666
18c666
18c666
18fe66
180006
188406
18e206
18c306
1981be
1a018c
ENDCHAR
STARTCHAR ch-256
ENCODING 256
SWIDTH 1000 0
DWIDTH 24 0
BBX 24 24 0 -3
BITMAP
0e0c70
0c3e60
0df060
0c3060
0c3064
2e3167
2d3166
2dff66
6db164
6c3368
4c3360
cc7860
cc7460
0c7650
0c7650
0cf0d0
0cb0d0
0cb0d8
0d3088
0c3188
0c310c
0c330f
0c3206
0c3406
ENDCHAR
STARTCHAR ch-257
ENCODING 257
SWIDTH 1000 0
DWIDTH 24 0
BBX 24 24 0 -3
BITMAP
00c0e0
07e0c0
7e00c4
0604c7
0664c6
fff4c4
060cc8
0f0cc0
0ec1a0
1e61a0
166310
260318
c6060c
060c0f
063006
000000
01c800
118410
11860c
318646
618047
e18063
c1ffe0
00ffc0
ENDCHAR
STARTCHAR ch-259
ENCODING 259
SWIDTH 1000 0
DWIDTH 24 0
BBX 24 24 0 -3
BITMAP
0e01c0
0c2180
0c2186
0c3fff
0c6006
2c6004
2e0018
2d3ffc
6d8000
6d8000
4c1018
cc1ffc
cc1818
0c1818
0c1ff8
0c1818
0c1818
0c1818
0c1ff8
0c1818
0c0000
0c0006
0cffff
0c0000
ENDCHAR
STARTCHAR ch-262
ENCODING 262
SWIDTH 1000 0
DWIDTH 24 0
BBX 24 24 0 -3
BITMAP
080000
0e300c
1c1bfe
181800
30c000
646006
8763ff
0e0830
1c1830
3c3030
6ce030
8c6030
0c6030
0c7030
0c31f0
0c0060
002000
039810
130c0c
130c46
230047
e30063
c3ffe0
01ffc0
ENDCHAR
STARTCHAR ch-264
ENCODING 264
SWIDTH 1000 0
DWIDTH 24 0
BBX 24 24 0 -3
BITMAP
001800
003800
007400
00e300
01c1c0
0300f0
0cff3f
30000e
cfe330
082330
0fe330
082330
0fe330
082030
08e1f0
086060
000000
01d000
118c10
11848c
318086
7180c6
61ffc0
00ff80
ENDCHAR
STARTCHAR ch-265
ENCODING 265
SWIDTH 1000 0
DWIDTH 24 0
BBX 24 24 0 -3
BITMAP
1c0600
180600
180d00
180c80
1c1860
1b3038
59601f
58c0c6
5b3fe0
d80000
d90c0e
d9feec
198ccc
198ccc
19fccc
198ccc
198ccc
19fccc
198ccc
198c0c
198c0c
198c0c
19bc7c
199818
ENDCHAR
STARTCHAR ch-269
ENCODING 269
SWIDTH 1000 0
DWIDTH 24 0
BBX 24 24 0 -3
BITMAP
206100
3ff1c0
306180
30618c
3063fe
3fe218
330518
330130
3ff0b0
3100e0
318040
3090e0
30d8b8
fc791f
703606
400000
001000
11cc10
11860c
318646
618043
e18063
c1ffe0
00ffc0
ENDCHAR
STARTCHAR ch-270
ENCODING 270
SWIDTH 1000 0
DWIDTH 24 0
BBX 24 24 0 -3
BITMAP
0e2000
0c3800
0c3006
0c7fff
0c4000
2c8000
2e1ff8
2d1818
6d9818
6d9ff8
4c1818
cc1818
cc1ff8
0c0600
0c0c00
0c0ff8
0c1830
0c3460
0cc2c0
0c0180
0c03e0
0c067f
0c181e
0ce006
ENDCHAR
STARTCHAR ch-271
ENCODING 271
SWIDTH 1000 0
DWIDTH 24 0
BBX 24 24 0 -3
BITMAP
001c00
001818
3ffffc
010180
008100
00c206
ffffff
000000
000000
07ffe0
060060
060060
07ffe0
060060
060060
07ffe0
002000
039810
130c0c
130c46
230047
e30063
c3ffe0
01ffc0
ENDCHAR
STARTCHAR ch-277
ENCODING 277
SWIDTH 1000 0
DWIDTH 24 0
BBX 24 24 0 -3
BITMAP
0e4646
0c7f7f
0c4646
0c4646
0c4646
2c4646
2e7e7e
2d0000
6d8000
6d8018
4c3ffc
cc0000
cc0006
0cffff
0c0c00
0c0c18
0c1ffc
0c1818
0c0018
0c0038
0c0030
0c0070
0c03e0
0c00c0
ENDCHAR
STARTCHAR ch-282
ENCODING 282
SWIDTH 1000 0
DWIDTH 24 0
BBX 24 24 0 -3
BITMAP
040060
07fff0
061860
061860
07ffe0
061860
061860
07ffe0
001800
101818
1ffffc
181818
181918
1bff98
19e198
190078
182030
039800
130c10
130c4c
230046
e30067
c3ffe3
01ffc0
ENDCHAR
STARTCHAR ch-283
ENCODING 283
SWIDTH 1000 0
DWIDTH 24 0
BBX 24 24 0 -3
BITMAP
000078
001ffc
3ffc40
042070
231860
210886
7fffff
601006
c1c848
c98ca0
098c98
1180cc
31ffcc
30ff80
008000
00c0c0
01ffe0
0381c0
074380
0c2600
301c00
0067c0
0780ff
78001e
ENDCHAR
STARTCHAR ch-287
ENCODING 287
SWIDTH 1000 0
DWIDTH 24 0
BBX 24 24 0 -3
BITMAP
000e80
000c60
200c24
3ffffe
300c00
300420
33f638
300630
300260
33f360
3331c2
333182
63f342
600c73
40703f
80000e
002000
039810
130c0c
130c46
230047
e30063
c3ffe0
01ffc0
ENDCHAR
STARTCHAR ch-289
ENCODING 289
SWIDTH 1000 0
DWIDTH 24 0
BBX 24 24 0 -3
BITMAP
0e1000
0c1c00
0c1800
0c100c
0c3ffe
2c266c
2e444c
2d1ccc
6d8e8c
6d938c
4c21cc
cc42dc
cc0418
0c08f8
0c0030
0c0200
0c0180
0c0ec8
0c4cc6
0c4c13
0ccc13
0d8c18
0d8ff8
0c07f0
ENDCHAR
STARTCHAR ch-295
ENCODING 295
SWIDTH 1000 0
DWIDTH 24 0
BBX 24 24 0 -3
BITMAP
0e0400
0c0700
0c460c
0c7ffe
0c630c
2c630c
2e630c
2d7ffc
6de30c
6de30c
4c630c
cc7ffc
cc0190
0c1198
0c1d90
0c19a4
0c19a4
0c31fe
0c31b2
0c2180
0c6182
0c4183
0c81ff
0d00fe
ENDCHAR
STARTCHAR ch-296
ENCODING 296
SWIDTH 1000 0
DWIDTH 24 0
BBX 24 24 0 -3
BITMAP
0e0230
0c03f8
0c6330
fff330
0c0330
0cc63e
7fe41e
000800
40c7fc
7fe10c
c0c198
c080b0
0000e0
7fc1b8
00031f
000c06
002000
039810
130c0c
330c46
630043
e30063
c3ffe0
01ffc0
ENDCHAR
STARTCHAR ch-300
ENCODING 300
SWIDTH 1000 0
DWIDTH 24 0
BBX 24 24 0 -3
BITMAP
20410c
1871fe
0c618c
0c818c
fffd8c
0301fc
03018c
33318c
33318c
3331fc
3ff18c
33310c
03030c
06027c
0c0418
300000
001000
01cc10
11860c
318646
618043
e18063
c1ffe0
00ffc0
ENDCHAR
STARTCHAR ch-308
ENCODING 308
SWIDTH 1000 0
DWIDTH 24 0
BBX 24 24 0 -3
BITMAP
0e0300
0c0300
0c0680
0c0640
0e0c30
2d081c
2d97ef
2da006
6c5018
6c1ffc
4c1818
cc1818
cc1ff8
0c1818
0c1818
0c1ff8
0c3000
0c300c
0c2ffe
0c6c0c
0c4c0c
0c8c0c
0d0ffc
0c0c0c
ENDCHAR
STARTCHAR ch-316
ENCODING 316
SWIDTH 1000 0
DWIDTH 24 0
BBX 24 24 0 -3
BITMAP
0e3830
0c31f8
0c3f80
0c3004
0c3006
2e3ffe
2d1ffc
2d8000
6d87f8
6c6408
4c6408
cc67f8
cc6408
0c6408
0c67f8
0c6408
0c6408
0c67f8
0c6006
0c7fff
0c0800
0c1e38
0c380e
0cc006
ENDCHAR
STARTCHAR ch-317
ENCODING 317
SWIDTH 1000 0
DWIDTH 24 0
BBX 24 24 0 -3
BITMAP
0e01d0
0c0198
0c018a
0c7fff
0c0180
2c218c
2e3ffe
2d318c
6db18c
6dbffc
4c318c
cc318c
cc3ffc
0c300c
0c0000
0c0036
0c7fff
0c0030
0c1030
0c0c30
0c0630
0c0630
0c00f0
0c0060
ENDCHAR
STARTCHAR ch-318
ENCODING 318
SWIDTH 1000 0
DWIDTH 24 0
BBX 24 24 0 -3
BITMAP
1c4000
187000
186006
187fff
18c000
188030
5d3ff8
5a0000
5b0030
5b7ff8
d80030
d89d30
d85930
185a30
181830
19ffb0
183832
187c32
185a12
18db1a
18999a
19198f
18180f
180006
ENDCHAR
STARTCHAR ch-319
ENCODING 319
SWIDTH 1000 0
DWIDTH 24 0
BBX 24 24 0 -3
BITMAP
10000c
1ffffe
180600
180400
18fff0
18c030
18c030
18fff0
18c030
18c030
30fff0
310600
21c660
63861c
463e0e
880c06
000000
01d010
118c0c
318646
618643
e18063
c1ffe0
00ffc0
ENDCHAR
STARTCHAR ch-322
ENCODING 322
SWIDTH 1000 0
DWIDTH 24 0
BBX 24 24 0 -3
BITMAP
200018
18fffc
0c0030
0c0860
800680
60830c
30fffe
32c30c
04c30c
08fffc
18c30c
f0c30c
70fffc
30c30c
30c30c
38c33c
18c318
001000
11cc08
118646
318643
618063
e1ffe0
c0ffc0
ENDCHAR
STARTCHAR ch-324
ENCODING 324
SWIDTH 1000 0
DWIDTH 24 0
BBX 24 24 0 -3
BITMAP
0e0006
0dffff
0c0480
0c0480
0c448c
2c7ffe
2e648c
2d648c
6d648c
6d648c
4c7ffc
cc630c
cc0300
0c0306
0dffff
0c0f40
0c0f20
0c1b30
0c1b18
0c331c
0c630f
0d8306
0c0300
0c0300
ENDCHAR
STARTCHAR ch-327
ENCODING 327
SWIDTH 1000 0
DWIDTH 24 0
BBX 24 24 0 -3
BITMAP
00c230
23e3f8
3e0330
300330
3fe330
30263e
3fe41e
302800
3fe7fc
30010c
306198
3ff0b0
2060e0
60e1b8
47c31f
818c06
000000
03a010
13180c
330c46
630c43
e30063
c3ffe0
01ffc0
ENDCHAR
STARTCHAR ch-328
ENCODING 328
SWIDTH 1000 0
DWIDTH 24 0
BBX 24 24 0 -3
BITMAP
020100
0181c0
00c180
00c206
ffffff
020080
0300c0
264990
186618
0cc330
0c8320
014050
022088
7ffffc
3c370c
200400
01d000
098c10
09860c
118646
318043
e18063
c1ffe0
00ffc0
ENDCHAR
STARTCHAR ch-330
ENCODING 330
SWIDTH 1000 0
DWIDTH 24 0
BBX 24 24 0 -3
BITMAP
0e2020
0c1838
0c0c30
0c0c40
0cfffe
2c0480
2c048c
2e7ffe
6d048c
6d848c
4dffff
cd848c
cc048c
0c7ffc
0c048c
0c0cc0
0c0cc0
0c1ca0
0c14b0
0c3498
0c249f
0c448e
0d8486
0c0480
ENDCHAR
STARTCHAR ch-331
ENCODING 331
SWIDTH 1000 0
DWIDTH 24 0
BBX 24 24 0 -3
BITMAP
080000
0e4388
0c333c
ffdbe0
781b04
400306
3fe3fe
3061fc
306000
3fe380
306308
30633c
3fe3e0
306304
306306
31e3fe
30c1fc
001000
01cc18
118c46
218043
e18063
c1ffe0
00ffc0
ENDCHAR
STARTCHAR ch-332
ENCODING 332
SWIDTH 1000 0
DWIDTH 24 0
BBX 24 24 0 -3
BITMAP
1c1c70
181860
181866
19ffff
1c1860
5a1860
5b0300
5b0306
58ffff
d83000
d83000
d83ff8
181ff8
180000
180000
183bb8
183330
183330
183330
183332
186332
186333
18c33f
1b001e
ENDCHAR
STARTCHAR ch-333
ENCODING 333
SWIDTH 1000 0
DWIDTH 24 0
BBX 24 24 0 -3
BITMAP
0e0000
0c1018
0c1ffc
0c1818
0c1818
2c1818
2e1ff8
2d1818
6d9818
6d9818
4c1ff8
cc1818
cc0000
0c200c
0c3ffe
0c324c
0c324c
0c324c
0c324c
0c324c
0c324c
0c324c
0cffff
0c0000
ENDCHAR
STARTCHAR ch-334
ENCODING 334
SWIDTH 1000 0
DWIDTH 24 0
BBX 24 24 0 -3
BITMAP
0e0380
0c0300
0c030c
0cfffe
0c0300
2e0300
2d3ff0
2db030
6db030
6c3ff0
4c3030
cc3030
cc3ff0
0c3030
0c3030
0c3ff0
0c0000
0c0006
0dffff
0c1000
0c1cc0
0c3838
0c601c
0d800c
ENDCHAR
STARTCHAR ch-339
ENCODING 339
SWIDTH 1000 0
DWIDTH 24 0
BBX 24 24 0 -3
BITMAP
0e0006
0cffff
0c0240
0c0240
0c224c
2c3ffe
2e324c
2d324c
6db24c
6db24c
4c3ffc
cc300c
cc0000
0c3ffc
0c0000
0c0006
0cffff
0c0180
0c2190
0c3988
0c318c
0c6186
0c8f86
0c0300
ENDCHAR
STARTCHAR ch-341
ENCODING 341
SWIDTH 1000 0
DWIDTH 24 0
BBX 24 24 0 -3
BITMAP
00e380
00c30c
7ffffe
00c300
00c300
07ffe0
060060
060060
07ffe0
060060
060060
07ffe0
006006
ffffff
018100
0338c0
063070
0c303f
30300e
c23440
043230
1c3318
18f318
006000
ENDCHAR
STARTCHAR ch-344
ENCODING 344
SWIDTH 1000 0
DWIDTH 24 0
BBX 24 24 0 -3
BITMAP
0e0400
0c0700
0c0620
0c0818
0c7fec
2e3c0c
2d0000
2d630c
6c4308
6c9692
4df65f
cc8c31
cc1918
0c338f
0c6706
0d8c40
0c18e0
0c61c4
0c070e
0c181c
0c0070
0c01c0
0c0e00
0c7000
ENDCHAR
STARTCHAR ch-345
ENCODING 345
SWIDTH 1000 0
DWIDTH 24 0
BBX 24 24 0 -3
BITMAP
03800c
031a3e
ffffe0
030300
3ff300
231306
2313ff
3ff318
231318
231318
3ff318
030218
fffe18
030418
031818
000000
001000
11cc10
11860c
318646
618043
e18063
c1ffe0
00ffc0
ENDCHAR
STARTCHAR ch-346
ENCODING 346
SWIDTH 1000 0
DWIDTH 24 0
BBX 24 24 0 -3
BITMAP
1c3806
18304f
183078
1bff40
183040
183040
59fe40
5d3246
5b327f
5b324c
d9fe4c
d9324c
d9324c
19324c
19fe4c
18304c
1830cc
18308c
1bfe8c
18308c
18310c
18310c
18320c
18300c
ENDCHAR
STARTCHAR ch-349
ENCODING 349
SWIDTH 1000 0
DWIDTH 24 0
BBX 24 24 0 -3
BITMAP
200018
3ffffc
300000
306180
33fff8
306180
301800
37fffc
303000
306000
30ffe0
31a020
362020
303fe0
30000c
3ffffe
301000
01cc10
11860c
318646
618043
e18063
c1ffe0
00ffc0
ENDCHAR
STARTCHAR ch-351
ENCODING 351
SWIDTH 1000 0
DWIDTH 24 0
BBX 24 24 0 -3
BITMAP
1c0630
183f20
19f020
181020
181020
19ff26
5c10ff
5a1026
5bff26
591126
d91126
d9ff26
d91126
191126
19ff26
181026
181026
19ff66
181046
18104e
181f4c
1bf88c
19c0bc
190118
ENDCHAR
STARTCHAR ch-354
ENCODING 354
SWIDTH 1000 0
DWIDTH 24 0
BBX 24 24 0 -3
BITMAP
0e1030
0c1ff8
0c1830
0c1830
0f1ff0
2d9830
2d9830
2c1ff0
6c0000
6cfffe
ccc446
ccc446
0cfffe
0c0000
0c0030
0c7ff8
0c1030
0c0860
0c06c0
0c0380
0c06e0
0c0c7f
0c301e
0dc006
ENDCHAR
STARTCHAR ch-355
ENCODING 355
SWIDTH 1000 0
DWIDTH 24 0
BBX 24 24 0 -3
BITMAP
0e1018
0c1ffc
0c1918
0c1918
0cffff
2e1918
2d1918
2d9ff8
6d8000
6c200c
4c3ffe
cc300c
cc300c
0c3ffc
0c300c
0c300c
0c3ffc
0c300c
0c300c
0c3ffc
0c0800
0c0e38
0c1c0f
0ce003
ENDCHAR
STARTCHAR ch-357
ENCODING 357
SWIDTH 1000 0
DWIDTH 24 0
BBX 24 24 0 -3
BITMAP
0e0070
0c8260
0c6360
0c336c
0c37fe
2e0460
2d0860
2d8066
6d8fff
6c0000
4c3000
cdfa0c
cc33fe
0c330c
0c330c
0c330c
0c330c
0c33fc
0c330c
0c3000
0c3800
0de7ff
0cc1fe
0c8000
ENDCHAR
STARTCHAR ch-359
ENCODING 359
SWIDTH 1000 0
DWIDTH 24 0
BBX 24 24 0 -3
BITMAP
040020
040020
ffe7ff
040020
7fc3fe
040020
05e020
fe0fff
640020
040020
3ffff8
000018
000018
1ffff8
000018
000018
3ffff8
001000
09cc18
118646
318643
e18063
c1ffe0
00ffc0
ENDCHAR
STARTCHAR ch-360
ENCODING 360
SWIDTH 1000 0
DWIDTH 24 0
BBX 24 24 0 -3
BITMAP
1c8c00
18fe06
18cdff
18cc98
18cc98
5ccc98
5afc98
5bcc98
5bcc98
d8cc98
d8cc9a
d8ffff
18cc30
18c03c
18d078
18c858
18cc58
18d6d8
18e698
1bc19a
19811a
19021b
18041f
18180e
ENDCHAR
STARTCHAR ch-363
ENCODING 363
SWIDTH 1000 0
DWIDTH 24 0
BBX 24 24 0 -3
BITMAP
042010
07181c
0e0c38
1c0c20
300046
64ffff
870180
0e2180
1c398c
3c31fe
6c3180
8c2980
0c6580
0c43c0
0c80ff
0d003e
001000
01cc10
11860c
318646
618047
e18063
c1ffe0
00ffc0
ENDCHAR
STARTCHAR ch-366
ENCODING 366
SWIDTH 1000 0
DWIDTH 24 0
BBX 24 24 0 -3
BITMAP
001c00
001860
001ff0
101806
1fffff
183006
183fa4
1bf030
181ff0
180000
19fff0
190410
190410
19fff0
190410
190410
19fff0
180800
107608
326326
226323
466033
8c7ff0
0c3fe0
ENDCHAR
STARTCHAR ch-367
ENCODING 367
SWIDTH 1000 0
DWIDTH 24 0
BBX 24 24 0 -3
BITMAP
0e1000
0c1c00
0c180c
0c1ffe
0c3000
2c2ff0
2e4c30
2d0c30
6d8ff0
6d8c30
4c0c30
cc0ff0
cc0006
0cffff
0c1800
0c100c
0c3ffe
0c248c
0c4c8c
0c890c
0c111c
0c2218
0c04f8
0c0030
ENDCHAR
STARTCHAR ch-368
ENCODING 368
SWIDTH 1000 0
DWIDTH 24 0
BBX 24 24 0 -3
BITMAP
20181c
3ffc18
301818
301818
3ff81a
3003ff
37f818
300218
300198
2ffcd8
20c0d8
68d018
4cc818
4ccc18
9bccf8
218030
002000
039810
130c0c
130c46
230047
e30063
c3ffe0
01ffc0
ENDCHAR
STARTCHAR ch-369
ENCODING 369
SWIDTH 1000 0
DWIDTH 24 0
BBX 24 24 0 -3
BITMAP
0e01c0
0c0186
0cffff
0c0180
0c218c
2c3ffe
2e318c
2d318c
6dbffc
6db18c
4c318c
cc3ffc
cc0188
0c0186
0cfffb
0c3c03
0c0030
0cffff
0c1030
0c0830
0c0c30
0c0c30
0c01f0
0c0060
ENDCHAR
STARTCHAR ch-371
ENCODING 371
SWIDTH 1000 0
DWIDTH 24 0
BBX 24 24 0 -3
BITMAP
1c8400
18fe0c
18c9fe
18c88c
18c88c
18fe88
5cc258
5ac250
5bc270
5bfe20
d8c870
d8c858
d8c8cc
18fe8f
18c106
180000
180380
180318
187ffc
180300
180300
180306
19ffff
180000
ENDCHAR
STARTCHAR ch-372
ENCODING 372
SWIDTH 1000 0
DWIDTH 24 0
BBX 24 24 0 -3
BITMAP
0e0306
0cffff
0c0306
0c2346
0c3366
2e1326
2d070e
2d8b16
6d9b36
6c73e6
4c2346
cc0400
cc0700
0c260c
0c3ffe
0c300c
0c300c
0c300c
0c3ffc
0c300c
0c300c
0c300c
0c3ffc
0c300c
ENDCHAR
STARTCHAR ch-373
ENCODING 373
SWIDTH 1000 0
DWIDTH 24 0
BBX 24 24 0 -3
BITMAP
1c0380
180300
188306
18ffff
18c080
58cff8
5cc088
5ac08a
5affff
dac088
d8c088
d8cff8
18c080
18dffc
18d084
18d084
18dffc
189084
189084
199ffc
191084
191084
1a109c
18108c
ENDCHAR
STARTCHAR ch-374
ENCODING 374
SWIDTH 1000 0
DWIDTH 24 0
BBX 24 24 0 -3
BITMAP
001c00
201806
3fffff
304200
3ffff8
304218
304218
3ffff8
300002
3fffff
300806
316624
316298
3660cc
363fcc
304000
206060
60fff0
61a1c0
431300
4c0e00
803bc0
01e0ff
3e001e
ENDCHAR
STARTCHAR ch-375
ENCODING 375
SWIDTH 1000 0
DWIDTH 24 0
BBX 24 24 0 -3
BITMAP
0e01c0
0c0180
0c4186
0c7fff
0c4180
2c4180
2e5ff8
2d4188
6d418a
6d7fff
4c4188
cc4188
cc5ff8
0c4180
0c5184
0c4dc7
0c4dc6
0c41a8
0c43b0
0ccd98
0cb99f
0c998e
0d1786
0c0300
ENDCHAR
STARTCHAR ch-382
ENCODING 382
SWIDTH 1000 0
DWIDTH 24 0
BBX 24 24 0 -3
BITMAP
104100
1c31c0
181980
33190c
2303fe
46c2cc
0634c8
0c18c0
1819a0
3fe1a0
d86110
186318
18620c
1fe40f
186806
000000
01c810
11840c
118606
318643
618043
e18060
c1ffe0
00ffc0
ENDCHAR
STARTCHAR ch-386
ENCODING 386
SWIDTH 1000 0
DWIDTH 24 0
BBX 24 24 0 -3
BITMAP
000006
ffffff
001000
03ffc0
020040
03ffc0
020040
23ffc0
220046
7fffff
601006
c4cc48
c4c530
08c198
387f8c
31000c
0180c0
03ffe0
068380
0c6e00
303c00
c0e780
0380ff
3c001e
ENDCHAR
STARTCHAR ch-391
ENCODING 391
SWIDTH 1000 0
DWIDTH 24 0
BBX 24 24 0 -3
BITMAP
00c38e
07e30c
7e030c
06030c
061fff
fff30c
06030c
06030c
2663fc
3ff30c
30630c
30630c
30630c
3fe3fc
30630c
000000
001000
01cc10
11860c
318646
618043
e18063
c1ffe0
00ffc0
ENDCHAR
STARTCHAR ch-394
ENCODING 394
SWIDTH 1000 0
DWIDTH 24 0
BBX 24 24 0 -3
BITMAP
040e70
070c64
0efffe
0c0c60
188c62
18ffff
38c000
58dffc
98d084
18d084
18dffc
189084
189084
199ffc
191084
1a109c
18108c
000000
11cc30
31860c
618646
e18067
c1ffe3
00ffc0
ENDCHAR
STARTCHAR ch-398
ENCODING 398
SWIDTH 1000 0
DWIDTH 24 0
BBX 24 24 0 -3
BITMAP
0e1010
0c0c1c
0c0618
0c0610
0c2026
2c3fff
2e3186
2d3186
6dbffe
6db186
4c3186
cc3186
cc3ffe
0c0000
0c100c
0c1ffe
0c180c
0c180c
0c1ffc
0c180c
0c180c
0c180c
0c1ffc
0c180c
ENDCHAR
STARTCHAR ch-400
ENCODING 400
SWIDTH 1000 0
DWIDTH 24 0
BBX 24 24 0 -3
BITMAP
1c4390
18231c
183318
183310
180324
5cfffe
5a0f40
5b1b20
5b1318
d8230f
d84306
d98300
182030
183c34
1867fe
184530
18ad30
192930
181932
1817ff
182030
184030
188030
1b0030
ENDCHAR
STARTCHAR ch-401
ENCODING 401
SWIDTH 1000 0
DWIDTH 24 0
BBX 24 24 0 -3
BITMAP
004030
407ff8
306100
186100
187ff0
006100
026100
047ff0
0c6100
18610c
f87ffe
70800c
30a48c
31924c
3b1218
1b00f8
001030
01cc00
118610
31864e
618047
e18063
c1ffe0
00ffc0
ENDCHAR
STARTCHAR ch-404
ENCODING 404
SWIDTH 1000 0
DWIDTH 24 0
BBX 24 24 0 -3
BITMAP
0e0840
0c0e70
0c1c60
0c18c0
0c308c
2c3ffe
2c70c0
2eb0c0
6d3ffc
6db0c0
4db0c0
cc30c0
cc3ffc
0c30c0
0c30c0
0c30c6
0c3fff
0c3000
0c0000
0c4488
0c4446
0ccc63
0d8c63
0d8c63
ENDCHAR
STARTCHAR ch-406
ENCODING 406
SWIDTH 1000 0
DWIDTH 24 0
BBX 24 24 0 -3
BITMAP
0700e8
0600c4
0630c6
fff8c6
0600c0
3660c6
264fff
56b1a0
5611a0
8f01b0
0ec118
1e631c
36320f
66340e
860806
060000
001000
01cc10
11860c
318646
618043
e18063
c1ffe0
00ffc0
ENDCHAR
STARTCHAR ch-409
ENCODING 409
SWIDTH 1000 0
DWIDTH 24 0
BBX 24 24 0 -3
BITMAP
001c00
00180c
7ffffe
001800
1ffff8
000000
07ffe0
060060
060060
07ffe0
010080
008106
ffffff
000000
07ffe0
060060
060060
07ffe0
000800
11c608
118246
218063
e1ffe3
c0ffc0
ENDCHAR
STARTCHAR ch-410
ENCODING 410
SWIDTH 1000 0
DWIDTH 24 0
BBX 24 24 0 -3
BITMAP
0e4646
0c7f7f
0c4646
0c4646
0c4646
2c7e7e
2e0000
2d3ffc
6db18c
6db18c
4c318c
cc3ffc
cc318c
0c318c
0c318c
0c3ffc
0c0180
0c0186
0cffff
0c0180
0c0180
0c0180
0c0180
0c0180
ENDCHAR
STARTCHAR ch-420
ENCODING 420
SWIDTH 1000 0
DWIDTH 24 0
BBX 24 24 0 -3
BITMAP
0e01c0
0c0180
0c3ffc
0c0180
0c0990
2e0810
2dffff
2d8810
6d8810
6c0000
cc3ffc
cc300c
0c300c
0c3ffc
0c300c
0c300c
0c3ffc
0c300c
0c300c
0c3ffc
0c0c00
0c1e3c
0c700f
0d8003
ENDCHAR
STARTCHAR ch-423
ENCODING 423
SWIDTH 1000 0
DWIDTH 24 0
BBX 24 24 0 -3
BITMAP
0e0380
0c0300
0c0318
0c7ffc
0c1040
2c0c60
2e0440
6d008c
6dfffe
4d8000
cc3ff8
cc3118
0c3118
0c3ff8
0c3118
0c3118
0c3ff8
0c0100
0c0108
0c7ffc
0c0100
0c0102
0dffff
0c0000
ENDCHAR
STARTCHAR ch-425
ENCODING 425
SWIDTH 1000 0
DWIDTH 24 0
BBX 24 24 0 -3
BITMAP
00c080
07e0e0
7e04cc
0607fe
06060c
06660c
fff7fc
06060c
06060c
26c60c
3fe7fc
30c60c
30c60c
30c60c
30c7fc
3fc60c
001000
01cc10
09860c
118646
318047
e18063
c1ffe0
00ffc0
ENDCHAR
STARTCHAR ch-427
ENCODING 427
SWIDTH 1000 0
DWIDTH 24 0
BBX 24 24 0 -3
BITMAP
1c8446
18fe7f
18c446
18c446
18fc7e
58c446
5cc446
5afc7e
5bc006
dbc386
d8c306
d8dff6
18c0c6
18c0c6
18c986
18c586
18c306
18c286
18c4c6
18c866
18d066
18c006
18c03e
18c00c
ENDCHAR
STARTCHAR ch-428
ENCODING 428
SWIDTH 1000 0
DWIDTH 24 0
BBX 24 24 0 -3
BITMAP
0e1018
0c1ffc
0c1818
0c1818
0c1ff8
2c1818
2e1818
2d1ff8
6d8182
6dffff
4d8000
cc1018
cc1ffc
0c1818
0c1818
0c1818
0c1ff8
0c0180
0c2180
0c3990
0c318c
0c6186
0c8f86
0c0300
ENDCHAR
STARTCHAR ch-430
ENCODING 430
SWIDTH 1000 0
DWIDTH 24 0
BBX 24 24 0 -3
BITMAP
1c1000
181c00
181800
183000
1c200c
5a7ffe
5a6490
58a490
582490
d82496
d9ffff
d82490
182490
182490
182490
182496
19ffff
180000
180000
184488
184446
18cc63
198c63
198c63
ENDCHAR
STARTCHAR ch-434
ENCODING 434
SWIDTH 1000 0
DWIDTH 24 0
BBX 24 24 0 -3
BITMAP
201c00
201806
7fffff
600006
c01804
cffff0
001800
0ffff0
001800
001806
ffffff
000000
1ffff8
184218
184218
184218
1ffff8
002000
09d818
118c46
318c43
e18063
c1ffe0
00ffc0
ENDCHAR
STARTCHAR ch-438
ENCODING 438
SWIDTH 1000 0
DWIDTH 24 0
BBX 24 24 0 -3
BITMAP
0e01c0
0c0180
0c0184
0c7ffe
0c0820
2e0420
2d0442
2dffff
6d8000
6dbffc
4c300c
cc300c
cc3ffc
0c300c
0c300c
0c3ffc
0c0200
0c0180
0c2cc8
0c2cc6
0c4c13
0ccc1b
0ccff8
0c07f0
ENDCHAR
STARTCHAR ch-442
ENCODING 442
SWIDTH 1000 0
DWIDTH 24 0
BBX 24 24 0 -3
BITMAP
0e0800
0c0c60
0c1ff0
0c18c0
0c3086
2c7fff
2ee660
2d6660
6d6c7e
6d683e
4c7000
cc67f8
cc6000
0c7fff
0c6000
0c67f8
0c6000
0c67f8
0c4000
0ccffc
0c8c0c
0c8c0c
0d0ffc
0c0c0c
ENDCHAR
STARTCHAR ch-446
ENCODING 446
SWIDTH 1000 0
DWIDTH 24 0
BBX 24 24 0 -3
BITMAP
1c01d0
18018c
188184
18ffff
18c180
5cc188
5ade8e
5ac0cc
5ac0d8
58de58
d8d272
d8d222
d8de72
18819a
19860f
190003
1a0200
181d10
18198c
1899a6
189823
199833
199ff0
180fe0
ENDCHAR
STARTCHAR ch-451
ENCODING 451
SWIDTH 1000 0
DWIDTH 24 0
BBX 24 24 0 -3
BITMAP
1ce0e0
18c0c0
fff8c0
18c0c0
18c0c6
7ff7ff
4210c6
4210c6
7ff0c6
020086
7ff186
02018e
3fe10c
02030c
fff27c
7c0418
401000
01cc10
11860c
318646
618043
e18063
c1ffe0
00ffc0
ENDCHAR
STARTCHAR ch-454
ENCODING 454
SWIDTH 1000 0
DWIDTH 24 0
BBX 24 24 0 -3
BITMAP
0e0830
0c0ff8
0c0c30
0c0c30
0c0c30
2c0ff0
2e0000
2d0000
6dbe7c
6da244
4c2244
cc2244
cc3e7c
0c0180
0c0186
0cffff
0c0380
0c07c0
0c05a0
0c0db8
0c199f
0c318e
0cc186
0c0180
ENDCHAR
STARTCHAR ch-455
ENCODING 455
SWIDTH 1000 0
DWIDTH 24 0
BBX 24 24 0 -3
BITMAP
018418
03c7fc
1e0618
e84618
4677f8
32e618
138618
0d07fc
718647
028646
0cc628
71c620
06c610
18dfdc
618e0f
0f8806
032000
001820
09cc18
118c4e
318047
e18063
c1ffe0
00ffc0
ENDCHAR
STARTCHAR ch-456
ENCODING 456
SWIDTH 1000 0
DWIDTH 24 0
BBX 24 24 0 -3
BITMAP
1c4000
186606
187fff
18c666
188c66
590866
5c9046
5afec6
5a929e
da930c
d89200
d8fe1c
189298
1892da
1892ff
18fe98
188318
18821a
1882ff
188218
198218
190218
191e18
1a0618
ENDCHAR
STARTCHAR ch-457
ENCODING 457
SWIDTH 1000 0
DWIDTH 24 0
BBX 24 24 0 -3
BITMAP
000e00
200c06
3fffff
308420
30e630
30cc44
318ffe
319c40
33affc
358c40
398c40
318ffc
318c40
318c42
318fff
318c00
200000
207610
62630c
626326
466027
4e6033
8c7ff0
003fe0
ENDCHAR
STARTCHAR ch-458
ENCODING 458
SWIDTH 1000 0
DWIDTH 24 0
BBX 24 24 0 -3
BITMAP
0e0400
0c0700
0c460c
0c7ffe
0c600c
2c69ac
2e652c
2d654c
6d610c
6d6fec
4c630c
cc678c
cc656c
0c692c
0c610c
0c600c
0c630c
0dffff
0c0680
0c0640
0c0c70
0c183e
0c301c
0cc00c
ENDCHAR
STARTCHAR ch-459
ENCODING 459
SWIDTH 1000 0
DWIDTH 24 0
BBX 24 24 0 -3
BITMAP
1c0638
18ff30
180430
184830
183034
ff12fe
18ff30
182b38
3c2a78
3a6874
3a4874
5848b6
58c8b3
988932
193830
181830
000000
01d010
118c0c
318646
618643
e18063
c1ffe0
00ffc0
ENDCHAR
STARTCHAR ch-460
ENCODING 460
SWIDTH 1000 0
DWIDTH 24 0
BBX 24 24 0 -3
BITMAP
0e200c
0c3ffe
0c324c
0c324c
0c324c
2c3ffc
2e0180
2d0184
6dbffe
6d8180
4c0182
cc7fff
cc0810
0c0410
0c0422
0c7fff
0c0180
0c0180
0c0184
0c3ffe
0c0180
0c0180
0c0180
0c0180
ENDCHAR
STARTCHAR ch-461
ENCODING 461
SWIDTH 1000 0
DWIDTH 24 0
BBX 24 24 0 -3
BITMAP
0e01c0
0c0186
0cffff
0c0000
0c3ffc
2c300c
2e33cc
2d324c
6db24c
6db3cc
4c300c
cc3ffc
cc0000
0c0078
0c3ffc
0c0180
0c0186
0cffff
0c07a0
0c0d90
0c199c
0c318f
0cc186
0c0180
ENDCHAR
STARTCHAR ch-464
ENCODING 464
SWIDTH 1000 0
DWIDTH 24 0
BBX 24 24 0 -3
BITMAP
1c0380
180300
180306
19ffff
180300
5c830c
5afffe
5bcccc
5bcccc
d8cccc
d8fffc
d80300
180306
19ffff
180e08
181d0e
18391c
18f0a0
1b30c0
183060
183338
19fc1f
18f00e
188006
ENDCHAR
STARTCHAR ch-483
ENCODING 483
SWIDTH 1000 0
DWIDTH 24 0
BBX 24 24 0 -3
BITMAP
201c70
181866
0dffff
0c1860
801860
601fe0
310306
33ffff
050302
0973e2
191322
f13b72
712b52
314f9a
310302
39031e
19030c
001000
11cc10
11864c
318646
618063
e1ffe3
c0ffc0
ENDCHAR
STARTCHAR ch-486
ENCODING 486
SWIDTH 1000 0
DWIDTH 24 0
BBX 24 24 0 -3
BITMAP
0e000c
0c7ffe
0c0300
0c4306
0c7fff
2cc306
2ec304
2d3b78
6d8300
6dbb78
4c0300
cc0006
ccffff
0c0300
0c4206
0c7fff
0c6446
0c6446
0c6446
0c6446
0c6446
0c6446
0c645e
0c600c
ENDCHAR
STARTCHAR ch-498
ENCODING 498
SWIDTH 1000 0
DWIDTH 24 0
BBX 24 24 0 -3
BITMAP
103040
1d3270
393260
313262
69fe7f
8e0048
1c00ce
19fc8c
38214c
582048
99fc38
182010
182038
1bfc6f
19e0c6
190300
001000
01c810
118c0c
118c46
218043
e18063
c1ffe0
00ffc0
ENDCHAR
STARTCHAR ch-500
ENCODING 500
SWIDTH 1000 0
DWIDTH 24 0
BBX 24 24 0 -3
BITMAP
1c1c70
181860
181868
181a66
18ff63
181863
5c1860
5a1866
5bffff
5b2460
d82464
d9e7e7
d82466
182426
19e7a4
18242c
182428
19e7b8
182412
18243a
19ff6a
18f0ce
188187
180603
ENDCHAR
STARTCHAR ch-502
ENCODING 502
SWIDTH 1000 0
DWIDTH 24 0
BBX 24 24 0 -3
BITMAP
1c3806
1831ff
183030
183620
1bff26
1830ff
5932c6
5dfec6
5b32c6
5b32fe
d932c6
d932c6
d932c6
19fefe
1932c6
1830c6
1870c6
187cc6
18b6fe
18b600
193048
1a3066
1830c3
183303
ENDCHAR
STARTCHAR ch-503
ENCODING 503
SWIDTH 1000 0
DWIDTH 24 0
BBX 24 24 0 -3
BITMAP
1c0380
180300
180306
19ffff
180000
587ffc
5c4444
5a4444
5b4444
db7ffc
d80300
d8f33c
180300
19f33e
180700
180e84
181c8e
183858
18d860
1b1830
181838
18ff1f
18780e
184006
ENDCHAR
STARTCHAR ch-504
ENCODING 504
SWIDTH 1000 0
DWIDTH 24 0
BBX 24 24 0 -3
BITMAP
08201c
0ff7fe
682080
6fe0e0
6824d0
6fe31c
682198
6821b4
6fe042
600fff
7ff7e3
230460
3b8268
336366
632663
830863
002000
001810
09cc0c
118c46
318047
e18063
c1ffe0
00ffc0
ENDCHAR
STARTCHAR ch-506
ENCODING 506
SWIDTH 1000 0
DWIDTH 24 0
BBX 24 24 0 -3
BITMAP
1c4470
186660
184468
18cc66
18aa63
192b63
5c1160
5a0066
5bffff
5b2460
d82464
d9e7e7
d82466
182426
19e7a4
18242c
182428
19e7b8
182412
18243a
19ff6a
18f0ce
188187
180603
ENDCHAR
STARTCHAR ch-508
ENCODING 508
SWIDTH 1000 0
DWIDTH 24 0
BBX 24 24 0 -3
BITMAP
0e4242
0c7f7f
0c4242
0c7e7e
0c4242
2c7e7e
2e4242
2d4242
6dfe7e
6d9080
4c18c0
cc3184
cc3ffe
0c7080
0c7084
0cbffe
0d3080
0c3084
0c3ffe
0c3080
0c3080
0c3082
0c3fff
0c3000
ENDCHAR
STARTCHAR ch-509
ENCODING 509
SWIDTH 1000 0
DWIDTH 24 0
BBX 24 24 0 -3
BITMAP
0e0e38
0c0c30
0cffff
0c0c30
0c0c30
2c7e7e
2e4242
2d4242
6dfe7e
6d9080
4c1ce0
cc18c4
cc3ffe
0c3080
0c7084
0c7ffe
0cb080
0d3084
0c3ffe
0c3080
0c3080
0c3086
0c3fff
0c3000
ENDCHAR
STARTCHAR ch-510
ENCODING 510
SWIDTH 1000 0
DWIDTH 24 0
BBX 24 24 0 -3
BITMAP
0e0018
0c7ffc
0c0820
0c0fe0
0c0820
2e0820
2d0fe0
2d8820
6d883c
6c7fe0
4c3820
cc0606
cdffff
0c4444
0c4444
0c7c7c
0c4444
0c4444
0c7c7c
0c4444
0c4444
0dfdfc
0cc4c4
0c0404
ENDCHAR
STARTCHAR ch-511
ENCODING 511
SWIDTH 1000 0
DWIDTH 24 0
BBX 24 24 0 -3
BITMAP
070080
0600e0
ffe0c0
061d86
0601ff
7fc266
000464
406060
7ff0d0
c062d0
c04498
3f9d8c
00090f
7fc206
404040
4041a0
7fc1b0
0085b4
40c582
318d8b
110d8b
ffd98c
7c19fc
4000f8
ENDCHAR
ENDFONT
